<svg width="100" height="100" viewBox="0 0 100 100" fill="none" xmlns="http://www.w3.org/2000/svg">
<circle cx="50" cy="50" r="50" fill="#5956E9"/>
<g clip-path="url(#clip0_611_767)">
<path d="M34.9999 35H64.9999C65.4419 35 65.8659 35.1756 66.1784 35.4882C66.491 35.8007 66.6666 36.2246 66.6666 36.6667V63.3333C66.6666 63.7754 66.491 64.1993 66.1784 64.5118C65.8659 64.8244 65.4419 65 64.9999 65H34.9999C34.5579 65 34.134 64.8244 33.8214 64.5118C33.5088 64.1993 33.3333 63.7754 33.3333 63.3333V36.6667C33.3333 36.2246 33.5088 35.8007 33.8214 35.4882C34.134 35.1756 34.5579 35 34.9999 35ZM50.0999 49.4717L39.4133 40.3967L37.2549 42.9367L50.1216 53.8617L62.7566 42.9283L60.5766 40.4067L50.1016 49.4717H50.0999Z" fill="white"/>
</g>
<defs>
<clipPath id="clip0_611_767">
<rect width="40" height="40" fill="white" transform="translate(30 30)"/>
</clipPath>
</defs>
</svg>
